<?xml version="1.0" encoding="UTF-8" standalone="no"?>
<!DOCTYPE svg PUBLIC "-//W3C//DTD SVG 1.1//EN" "http://www.w3.org/Graphics/SVG/1.1/DTD/svg11.dtd">
<svg width="100%" height="100%" viewBox="0 0 1200 1200" version="1.1" xmlns="http://www.w3.org/2000/svg" xmlns:xlink="http://www.w3.org/1999/xlink" xml:space="preserve" xmlns:serif="http://www.serif.com/" style="fill-rule:evenodd;clip-rule:evenodd;stroke-linejoin:round;stroke-miterlimit:2;">
    <g id="Layer1" transform="matrix(1,0,0,1,-100,60)">
        <g transform="matrix(0.727778,0,0,0.727778,179,147)">
            <path d="M884.886,1036.03L884.886,1123.97L87.939,1123.97C15.088,1123.97 -43.969,1064.91 -43.969,992.061L-43.969,87.939C-43.969,15.088 15.088,-43.969 87.939,-43.969L992.061,-43.969C1064.91,-43.969 1123.97,15.088 1123.97,87.939L1123.97,434.94L1036.03,434.94L1036.03,87.939C1036.03,63.655 1016.35,43.969 992.061,43.969L87.939,43.969C63.655,43.969 43.97,63.655 43.969,87.939L43.969,992.061C43.97,1016.35 63.655,1036.03 87.939,1036.03L884.886,1036.03Z"/>
        </g>
        <g transform="matrix(1,0,0,1,-76.5426,14)">
            <path d="M681.566,575.092C681.566,593.401 678.514,610.32 672.411,625.847C666.308,641.374 657.243,654.792 645.216,666.101C633.189,677.41 618.201,686.205 600.25,692.488C582.3,698.771 561.477,701.912 537.783,701.912L504.125,701.912L504.125,815L437.35,815L437.35,463.081L540.475,463.081C563.272,463.081 583.422,465.549 600.923,470.486C618.425,475.422 633.144,482.647 645.081,492.161C657.019,501.675 666.084,513.387 672.276,527.299C678.469,541.211 681.566,557.142 681.566,575.092ZM612.097,579.669C612.097,570.335 610.617,561.854 607.655,554.225C604.693,546.596 600.205,540.089 594.192,534.703C588.178,529.318 580.594,525.19 571.44,522.318C562.285,519.446 551.425,518.01 538.86,518.01L504.125,518.01L504.125,646.984L541.014,646.984C552.502,646.984 562.644,645.413 571.44,642.272C580.235,639.13 587.64,634.598 593.653,628.674C599.667,622.751 604.244,615.66 607.385,607.403C610.527,599.146 612.097,589.901 612.097,579.669Z"/>
            <path d="M775.816,538.742C782.638,538.742 789.01,539.999 794.934,542.512C800.857,545.025 805.973,548.48 810.281,552.878C814.59,557.276 818,562.437 820.513,568.361C823.026,574.284 824.283,580.567 824.283,587.209C824.283,594.03 823.026,600.402 820.513,606.326C818,612.249 814.59,617.365 810.281,621.673C805.973,625.982 800.857,629.392 794.934,631.905C789.01,634.418 782.638,635.675 775.816,635.675C768.995,635.675 762.668,634.418 756.834,631.905C751,629.392 745.884,625.982 741.486,621.673C737.088,617.365 733.633,612.249 731.12,606.326C728.607,600.402 727.35,594.03 727.35,587.209C727.35,580.567 728.607,574.284 731.12,568.361C733.633,562.437 737.088,557.276 741.486,552.878C745.884,548.48 751,545.025 756.834,542.512C762.668,539.999 768.995,538.742 775.816,538.742ZM775.816,724.26C782.638,724.26 789.01,725.517 794.934,728.03C800.857,730.543 805.973,733.954 810.281,738.262C814.59,742.57 818,747.686 820.513,753.609C823.026,759.533 824.283,765.816 824.283,772.457C824.283,779.279 823.026,785.651 820.513,791.575C818,797.498 814.59,802.659 810.281,807.057C805.973,811.455 800.857,814.91 794.934,817.423C789.01,819.936 782.638,821.193 775.816,821.193C768.995,821.193 762.668,819.936 756.834,817.423C751,814.91 745.884,811.455 741.486,807.057C737.088,802.659 733.633,797.498 731.12,791.575C728.607,785.651 727.35,779.279 727.35,772.457C727.35,765.816 728.607,759.533 731.12,753.609C733.633,747.686 737.088,742.57 741.486,738.262C745.884,733.954 751,730.543 756.834,728.03C762.668,725.517 768.995,724.26 775.816,724.26Z"/>
            <path d="M918.49,434.54L1106.7,872.89L1042.62,872.89L854.676,434.54L918.49,434.54Z"/>
            <path d="M1163.26,515.586L1344.74,668.255L1163.26,821.193L1121.53,778.65L1254.81,668.793L1121.53,558.129L1163.26,515.586Z"/>
        </g>
        <g transform="matrix(0.727778,0,0,0.727778,184,147)">
            <rect x="964.58" y="1036.03" width="87.939" height="87.939"/>
        </g>
    </g>
</svg>
